<?xml version="1.0" encoding="UTF-8"?>
<!DOCTYPE svg PUBLIC "-//W3C//DTD SVG 1.1//EN" "http://www.w3.org/Graphics/SVG/1.1/DTD/svg11.dtd">
<!-- Creator: CorelDRAW 2020 (64-Bit) -->
<svg xmlns="http://www.w3.org/2000/svg" xml:space="preserve" width="170.977mm" height="170.977mm" version="1.1" style="shape-rendering:geometricPrecision; text-rendering:geometricPrecision; image-rendering:optimizeQuality; fill-rule:evenodd; clip-rule:evenodd"
viewBox="0 0 17097.72 17097.72"
 xmlns:xlink="http://www.w3.org/1999/xlink"
 xmlns:xodm="http://www.corel.com/coreldraw/odm/2003">
 <defs>
  <style type="text/css">
   <![CDATA[
    .fil0 {fill:#A78764}
   ]]>
  </style>
 </defs>
 <g id="Layer_x0020_1">
  <metadata id="CorelCorpID_0Corel-Layer"/>
  <path class="fil0" d="M1893.74 4364.62c14.05,4.53 28.09,9.08 42.13,13.65 -14.04,-4.56 -28.07,-9.12 -42.13,-13.65zm-504.29 1229.77l-51.77 -16.19 51.77 16.19zm619.13 -1192.2c-24.22,-8.04 -48.46,-16.02 -72.71,-23.92 24.26,7.91 48.5,15.88 72.71,23.92zm13116.07 56.43c-430.25,114.12 -846.28,251.06 -1247.69,411 -698.07,278.18 -1353.34,626.5 -1962.76,1046.61 -3.4,2.35 -6.8,4.69 -10.2,7.04 -815.46,-1582.05 -2027.29,-2949.01 -3377.24,-4061.51 -1307.21,993.18 -2334.74,2219.79 -3059.23,3571.43l14.74 10.42 44.22 31.2 0 0.89 18.94 12.81 25.26 17.96 0 1.24 18.96 12.47 0 0.37 25.26 18.01 0 1.19 18.97 12.81 25.28 18.47 0 0.77 25.26 17.97 0 1.24 44.22 32.02 25.29 19.23 25.25 19.23 25.27 19.17 31.61 24.45 0 1.21 25.27 18.48 0 0.75 25.27 19.24 6.3 4.87 0 1.53 25.3 18.51 0 0.7 31.57 24.54 0 1.08 94.79 76.03 0 0.85 31.57 25.33 0 0.31 6.32 4.95 0 1.44 31.6 25.04 0 0.61 6.3 4.71 0 1.7 31.61 25.04 0 0.57 6.31 4.83 0 1.58 31.59 25.63 6.34 5.27 0 1.14 37.87 31.73 0 0.33 101.1 89.06 0 0.61 6.32 5.05 0 1.35 50.55 44.47 0 0.38 6.32 5.39 0 1.02 6.32 4.77 0 1.63 56.85 50.89 0 0.38 6.31 5.52 0 0.88 43.15 39.64c0.81,-1.58 1.62,-3.16 2.43,-4.74l10.65 -20.81 0.63 -1.27 36.1 -70.49 1.82 0 4.84 -12.81 1.49 0 5.2 -12.81 1.11 0 5.56 -12.82 0.75 0 6.03 -12.79 0.29 0 16.61 -32.06 2.36 0 4.48 -12.81 1.82 0 5.01 -12.8 1.29 0 5.59 -12.82 0.75 0 6.32 -12.83 17.17 -32.02 1.79 0 5.16 -12.82 1.16 0 5.88 -12.81 0.44 0 31.57 -57.65 24.96 -44.85 0.31 0 17.84 -32.04 1.13 0 6.32 -12.81 10.82 -19.23 1.81 0 5.58 -12.81 0.74 0 10.36 -19.23 2.26 0 5.13 -12.81 1.19 0 6.3 -12.81 11.25 -19.21 1.42 0 6.31 -12.83 11.13 -19.21 1.5 0 6.31 -12.83 11.22 -19.21 1.43 0 6.32 -12.81 11.43 -19.24 1.2 0 18.21 -32.03 0.75 0 18.95 -32.02 31.59 -51.26 11.78 -19.2 0.85 0 11.22 -19.23 1.44 0 18.94 -32.03 12.02 -19.25 0.61 0 11.61 -19.21 1.02 0 11.36 -19.23 1.29 0 11.08 -19.2 1.55 0 10.9 -19.23 1.73 0 10.8 -19.23 1.83 0 10.76 -19.21 1.89 0 10.78 -19.21 1.85 0 10.84 -19.22 1.79 0 93.56 -140.96 1.21 0 12.03 -19.21 0.62 0 17.21 -25.64 1.74 0 11.7 -19.21 0.92 0 12.65 -19.24 4.45 -6.42 1.85 0 11.75 -19.19 0.9 0 3.62 -6.41 2.7 0 11.03 -19.2 1.61 0 12.16 -19.24 0.47 0 4.11 -6.42 2.23 0 11.68 -19.21 0.95 0 17.61 -25.62 1.33 0 31.58 -44.85 18.96 -25.65 43.03 -57.64 1.2 0 18.18 -25.64 0.76 0 18.94 -25.63 4.74 -6.4 1.61 0 18.04 -25.64 0.92 0 4.04 -6.4 2.27 0 12.6 -19.22 4.96 -6.4 1.39 0 3.57 -6.42 2.75 0 12.28 -19.22 0.36 0 4.67 -6.4 1.65 0 18.51 -25.62 0.44 0 4.64 -6.4 1.67 0 18.62 -25.64 0.34 0 4.79 -6.42 1.53 0 24.11 -32.02 1.15 0 56.1 -70.48 0.78 0 30.91 -38.43 0.66 0 4.64 -6.4 1.7 0 25.25 -32.06 5.13 -6.41 1.19 0 4.16 -6.41 2.18 0 24.89 -32.03 0.37 0 5.06 -6.39 1.25 0 4.19 -6.42 2.13 0 25.24 -32.02 5.48 -6.42 0.88 0 4.65 -6.41 1.66 0 3.88 -6.4 2.43 0 30.9 -38.42 0.7 0 4.9 -6.4 1.42 0 101.08 -115.36 5.61 -6.4 0.72 0 5.08 -6.41 1.23 0 4.55 -6.4 1.77 0 4.02 -6.41 2.29 0 56.44 -64.05 0.44 0 5.46 -6.43 0.86 0 5.07 -6.41 1.24 0 4.76 -6.4 1.56 0 4.42 -6.42 1.89 0 4.07 -6.41 2.24 0 3.73 -6.38 2.59 0 3.39 -6.4 2.92 0 82.12 -89.7 6.33 -6.42 6 -6.41 0.32 0 49.45 -51.25 1.09 0 5.14 -6.41 1.2 0 5.12 -6.42 1.19 0 5.1 -6.4 1.22 0 5.1 -6.41 1.21 0 0 -1.23 5.1 -5.17 1.24 0 5.06 -6.41 1.23 0 0 -1.24 6.33 -5.15 0 -1.22 6.32 -5.19 0 -1.18 6.32 -5.22 0 -1.12 6.33 -5.29 0 -1.05 6.32 -5.36 0 -0.99 6.31 -5.41 0 -0.92 6.32 -5.5 0 -0.81 6.32 -5.59 0 -0.69 6.3 -5.72 0 -0.57 6.32 -5.86 0 -0.4 6.32 -5.98 0 -0.32 6.31 -6.29 132.69 -127.93 0 -0.77 6.3 -5.66 0 -0.35c5.66,-5.39 11.28,-10.74 16.94,-16.09 36.67,35.17 73.16,70.57 109.46,106.35l6.35 6.17 6.27 6.09 0 0.36 6.29 5.88 0 0.52 6.33 5.72 0 0.69 6.32 5.51 0 0.89 6.32 5.35 0 1.06 6.33 5.2 0 1.21 6.32 5.08 0 1.33 6.31 4.93 0 1.45 6.31 4.83 0 1.6 6.32 4.68 0 1.73 6.31 4.54 0 1.86 6.32 4.46 0 1.96 6.32 4.37 0 2.03 164.27 166.57 1.39 0 4.95 6.41 1.25 0 5.03 6.42 1.16 0 5.16 6.4 0.95 0 5.37 6.41 0.79 0 5.54 6.4 0.62 0 5.68 6.41 0.46 0 6.13 6.4 6.13 6.4 101.03 108.93 1.73 0 4.59 6.4 1.36 0 4.94 6.41 1.02 0 5.3 6.4 0.66 0 5.66 6.41 0.28 0 81.85 89.69 0.54 0 5.8 6.43 50.52 57.65 1.51 0 4.8 6.4 0.96 0 5.38 6.41 0.37 0 37.54 44.87 2.39 0 3.92 6.38 1.76 0 4.54 6.42 1.09 0 5.25 6.39 0.42 0 37.48 44.85 1.88 0 4.44 6.42 1.15 0 5.18 6.41 0.43 0 43.78 51.24 0.61 0 43.87 51.28 31.35 38.42 1.24 0 5.06 6.41 0.34 0 24.93 32.04 1.99 0 4.32 6.41 1.04 0 5.37 6.41 25.2 32.03 1.44 0 4.88 6.4 0.42 0 24.87 32.04 1.54 0 4.77 6.4 0.5 0 24.76 32.04 1.43 0 4.88 6.4 0.33 0 24.93 32.02 1.06 0 30.56 38.47 0.36 0 50.18 64.04 0.72 0 24.56 32.06 0.62 0 18.31 25.62 1.75 0 4.58 6.42 0.38 0 18.56 25.62 1.32 0 17.65 25.63 2.09 0 4.23 6.41 0.67 0 18.27 25.61 1.33 0 17.62 25.62 1.91 0 4.4 6.4 0.48 0 18.48 25.66 0.8 0 18.17 25.63 1.08 0 17.89 25.62 1.21 0 74.58 102.51 0.75 0 18.22 25.63 0.32 0 12.31 19.21 1.52 0 17.42 25.64 0.92 0 11.72 19.21 1.95 0 4.54 6.4 12.47 19.22 1.18 0 11.48 19.23 2.02 0 4.5 6.43 12.4 19.18 1.07 0 11.58 19.24 1.79 0 17.15 25.61 0.62 0 12.01 19.25 1.22 0 30.37 44.83 0.29 0 75.54 115.31 1.8 0 10.83 19.24 1.79 0 10.86 19.23 1.77 0 10.86 19.21 1.67 0 10.96 19.21 1.53 0 11.12 19.23 1.31 0 11.3 19.24 1.03 0 11.62 19.2 0.71 0 11.94 19.22 0.3 0 18.65 32.04 1.61 0 11.01 19.23 1.08 0 11.55 19.21 0.48 0 62.72 102.51 0.35 0 18.59 32.03 0.82 0 5.49 12.82 2.16 0 10.48 19.22 1.05 0 5.26 12.84 2.39 0 10.26 19.18 1.11 0 5.21 12.83 2.37 0 10.25 19.22 1.06 0 5.28 12.8 2.21 0 10.42 19.24 0.82 0 5.5 12.8 1.93 0 10.7 19.22 0.38 0 5.96 12.82 1.44 0 17.5 32.03 0.79 0 49.75 89.69 0.71 0 24.73 44.85 6.13 12.82 0.88 0 5.45 12.81 1.52 0 4.8 12.81 2.16 0 4.16 12.83 2.78 0 3.53 12.81 3.37 0 2.97 12.82 3.92 0 2.39 6.4 1.04 0 5.28 12.82 1.55 0 4.76 12.81 2.07 0 4.25 12.81 2.53 0 3.8 12.8 2.99 0 3.31 12.83 3.41 0 2.9 12.82 3.83 0 2.51 12.82 4.16 0 2.16 12.81 4.52 0 1.79 6.4 1.53 0 4.78 12.8 1.83 0 4.49 12.81 2.13 0 4.18 12.83 2.41 0 3.93 12.81 2.6 0 3.71 12.83 2.81 0 3.51 12.8 3.01 0 3.31 12.81 3.16 0 3.15 12.81 3.3 0 3.01 12.81 3.41 0 2.91 6.4 0.3 0 6.01 12.83 0.38 0 5.94 12.81 0.44 0 5.88 12.83 0.45 0 5.88 12.81 0.44 0 5.88 12.82 0.39 0 5.91 12.79 0.37 0 5.95 12.83 0.28 0 6.22 12.8 8.17 16.94c-966.71,887.21 -1707.24,1921.09 -2275.42,2993.21 -624.71,-1119.1 -1394.29,-2100.8 -2318.17,-2933.7 -340.59,-299.65 -695.93,-581.84 -1064.46,-845.79 -421.98,-298.38 -873.65,-568.13 -1347.74,-809.49 -587.17,-298.31 -1209.16,-553.85 -1840.16,-763.23 305.94,-481.53 663.58,-926.96 1065.11,-1328.49 1401.17,-1401.18 3336.97,-2267.85 5475.17,-2267.85 2138.2,0 4074,866.67 5475.17,2267.85 417.18,417.17 786.97,881.74 1100.62,1384.93zm118.11 -30.67c-39.49,10.03 -78.86,20.25 -118.12,30.66 39.27,-10.41 78.63,-20.63 118.12,-30.66zm-3973.66 11372.62c1774.22,-2970.69 2019.7,-5674.49 1369.56,-8014.74 -420.59,255.11 -799.1,575.32 -1122.09,949.09l5.64 33.89 0.7 0 5.62 38.47 1.55 0 4.76 38.43 2.39 0 3.92 38.43 2.68 0 3.64 38.44 2.93 0 3.38 38.44 3.11 0 3.23 38.45 2.79 0 3.53 38.44 2.46 0 3.85 38.45 1.97 0 4.37 38.42 1.07 0 5.42 38.44 6.12 51.28 0.67 0 5.66 57.65 1.61 0 4.72 57.66 2.04 0 4.26 64.08 2.89 0 3.43 57.65 2.29 0 4.04 64.08 2.11 0 4.21 57.66 0.51 0 5.8 83.29 0.52 0 5.79 140.93 2.77 0 3.55 134.57 2.25 0 -6.59 666.31 -1.98 0 -3.8 96.1 -2.51 0 -3.97 89.7 -2.34 0 -5.64 96.12 -0.68 0 -11.75 128.11 -0.9 0 -4.66 51.26 -1.64 0 -4.32 51.25 -2.01 0 -4.15 51.27 -2.18 0 -4.46 51.26 -1.84 0 -4.96 51.24 -1.35 0 -6 51.28 -0.34 0 -12.09 83.27 -0.54 0 -5.5 38.44 -0.84 0 -4.18 32.05 -2.13 0 -4.4 38.44 -1.92 0 -4.64 38.44 -1.67 0 -3.78 32.02 -2.53 0 -4.53 38.45 -1.79 0 -4.11 32.01 -2.19 0 -4.87 38.47 -1.46 0 -4.86 32.02 -1.46 0 -6.31 38.44 -18.19 89.69 -0.77 0 -5.98 32.04 -0.36 0 -5.06 25.65 -1.25 0 -4.49 25.61 -1.81 0 -3.93 25.63 -2.41 0 -4.75 32.02 -1.56 0 -4.2 25.64 -2.12 0 -3.96 25.62 -2.35 0 -5.26 32.03 -1.05 0 -5.03 25.62 -1.29 0 -4.84 25.64 -1.48 0 -4.92 25.63 -1.39 0 -31.34 128.14 -0.27 0 -11.54 44.85 -1.1 0 -5.82 25.63 -0.49 0 -4.82 19.22 -1.5 0 -5.57 25.61 -0.74 0 -4.58 19.24 -1.74 0 -5.34 25.63 -0.97 0 -4.55 19.21 -1.77 0 -3.78 19.22 -2.53 0 -4.88 25.61 -1.44 0 -4.12 19.24 -2.21 0 -5.2 25.63 -1.12 0 -4.67 19.22 -1.65 0 -6.33 25.61 -5.57 19.25 -0.72 0 -18.97 64.06 -5.96 19.21 -0.35 0 -5.72 19.23 -0.6 0 -5.44 19.22 -0.88 0 -5.18 19.23 -1.12 0 -5.03 19.21 -1.31 0 -5.02 19.21 -1.29 0 -5.01 19.26 -1.29 0 -4.98 19.18 -1.36 0 -4.96 19.22 -1.35 0 -4.96 19.21 -1.38 0 -5.11 19.26 -1.21 0 -5.35 19.22 -0.96 0 -5.59 19.22 -0.72 0 -5.82 19.21 -0.5 0 -6.31 19.21 -17.7 51.25 -1.25 0 -5.52 19.24 -0.82 0 -5.97 19.2 -0.32 0 -25.3 70.49 -11.51 32.04 -1.12 0 -5.93 19.24 -0.39 0 -11.55 32.01 -1.07 0 -6.32 19.21 -4.76 12.81 -1.55 0 -5.72 19.23 -0.6 0 -4.24 12.83 -2.09 0 -5.18 19.22 -1.12 0 -3.84 12.8 -2.47 0 -5.04 19.24 -1.3 0 -6.31 19.2 -4.92 12.81 -1.42 0 -6.31 19.23 -4.81 12.81 -1.51 0 -6.32 19.21 -4.89 12.81 -1.42 0 -56.12 140.97 -0.74 0 -12.64 32.04 -5.28 12.81 -1.04 0 -4.34 12.81 -1.97 0 -6.32 19.23 -5.44 12.81 -0.88 0 -4.6 12.8 -1.71 0 -12.03 32.04 -0.62 0 -4.86 12.81 -1.45 0 -4.05 12.83 -2.25 0 -6.32 19.21 -5.55 12.81 -0.78 0 -4.88 12.81 -1.44 0 -4.22 12.83 -2.09 0 -12.01 32.01 -0.65 0 -5.01 12.84 -1.29 0 -24.81 57.63 -0.48 0 -37.84 83.33 -5.8 12.79 -0.56 0 -5.4 12.81 -0.94 0 -5.02 12.83 -1.29 0 -44.19 96.09 -5.51 11.11 -0.8 1.72 -5.94 12.82 -0.42 0 -5.71 12.8 -0.6 0 -5.62 12.81 -0.7 0 -5.58 12.83 -0.73 0 -5.54 12.8 -0.8 0 -5.48 12.81 -0.83 0 -5.44 12.83 -0.88 0 -5.4 12.81 -0.92 0 -5.35 12.81 -0.98 0 -5.3 12.81 -0.99 0 -5.38 12.8 -0.95 0 -5.47 12.83 -0.85 0 -5.58 12.8 -0.72 0 -5.72 12.84 -0.61 0 -5.82 12.81 -0.5 0 -5.91 12.8 -0.41 0 -6.31 12.81 -6.31 12.83 -49.15 96.1 -1.41 0 -5.16 12.81 -1.14 0 -5.58 12.8 -0.75 0 -5.98 12.83 -0.34 0 -23.27 44.85 -1.99 0 -4.72 12.79 -1.61 0 -5.14 12.82 -1.18 0 -5.58 12.84 -0.75 0 -6.32 12.8 -17.05 32.04 -1.9 0 -4.99 12.81 -1.32 0 -5.58 12.81 -0.73 0 -6.32 12.8 -24.26 44.87 -1 0 -6.05 12.81 -0.29 0 -31.59 57.65 -24.93 44.85 -0.34 0 -24.88 44.86 -0.37 0 -17.71 32.01 -1.26 0 -6.33 12.83 -10.79 19.21 -1.82 0 -5.56 12.83 -0.77 0 -17.6 32.04 -1.35 0 -6 12.8 -0.32 0 -10.87 19.22 -1.77 0 -5.74 12.81 -0.58 0 -10.66 19.23 -1.97 0 -5.54 12.83 -0.78 0 -17.98 32.02 -0.96 0 -18.05 32.02 -0.92 0 -18.2 32.06 -0.76 0 -37.91 64.03 -30.98 51.28 -0.62 0 -18.91 32.04 -11.85 19.21 -0.8 0 -11.11 19.23 -1.53 0 -18.37 32.02 -0.6 0 -11.34 19.23 -1.29 0 -10.63 19.22 -2 0 -6.31 12.82 -11.95 19.22 -0.7 0 -11.46 19.21 -1.17 0 -10.96 19.23 -1.68 0 -18.6 32.04 -0.36 0 -12.01 19.22 -0.64 0 -11.73 19.23 -0.88 0 -399.48 616.07 -55.42 -2677.18 -13.79 -1161.58 1.15 0 5.82 -192.2 0.5 0 5.28 -108.91 1.04 0 5.65 -102.52 0.66 0 6.32 -89.68 5.45 -64.08 0.86 0 5.18 -64.05 1.16 0 5.44 -64.08 0.88 0 6.33 -64.09 6.01 -51.24 0.3 0 5.36 -44.84 0.95 0 5.03 -44.85 1.29 0 4.96 -44.86 1.36 0 5.2 -44.83 1.13 0 5.74 -44.87 0.56 0 18.65 -115.31 0.31 0 5.42 -32.04 0.9 0 5.02 -32.04 1.29 0 4.82 -32.04 1.5 0 4.8 -32.02 1.51 0 4.98 -32.04 1.34 0 5.37 -32.02 0.97 0 18.9 -89.69 6 -25.64 0.35 0 5.8 -25.64 0.52 0 4.16 -19.23 2.16 0 4.24 -25.61 2.09 0 4.48 -25.62 1.81 0 4.89 -25.66 1.44 0 5.4 -25.59 0.92 0 6.32 -25.64 35.68 -121.73 2.22 0 3.84 -19.24 2.48 0 3.67 -19.21 2.67 0 3.61 -19.21 2.68 0 3.73 -19.21 2.61 0 3.84 -19.24 2.46 0 4.21 -19.2 2.12 0 4.6 -19.24 1.72 0 5.2 -19.21 1.11 0 5.9 -19.24 0.41 0 246.39 -448.45 322.23 -512.56 5.18 -7.76c260.71,-387.63 486.49,-675.3 793.34,-1026.96l287.53 -317.14 0.64 0 24.28 -32.04 1 0 24.58 -32.04 0.68 0 68.77 -83.27 0.75 0 50.05 -57.68 0.48 0 5.33 -6.4 0.98 0 195.87 -200.08 6.31 -4.95 0 -0.93 6.32 -5.47 0 -0.41 56.85 -50.85 0 -0.67 44.23 -37.77 0 -0.69 37.91 -31.33 0 -0.59 31.59 -25.04 0 -0.86 107.4 -82.44 0 -1.03 25.28 -18.2 0 -0.49 44.23 -31.76 56.85 -38.21 0 -1.11 18.94 -11.7 0 -1.03 18.97 -11.8 0 -0.75 18.97 -12.05 0 -0.32 82.13 -50.92 0 -0.61 31.58 -18.64 0 -0.31 44.22 -25.31 0 -0.45 88.45 -57.2 0 -0.41 18.97 -12.42 0 -1.27 25.26 -18.13 18.94 -12.64 0 -0.85 18.97 -11.94 0 -1.49 18.97 -11.31 0 -2.03 6.3 -4.45 18.95 -12.76 0 -0.47 18.97 -12.35 0 -0.82 18.94 -12 0 -1.06 113.73 -75.83 0 -1.09 18.95 -11.72 0 -0.82 18.96 -11.98 0 -0.52 18.95 -12.41 12.63 -6.31 0 -1.91 18.96 -10.89 0 -1.41 18.97 -11.4 0 -0.81 18.92 -12.15 31.6 -19.08 0 -0.99 18.97 -11.96 126.36 -76.75 0 -1.17 31.57 -18.03 0 -0.97 31.6 -18.25 0 -0.57 12.65 -5.85 0 -1.64 31.58 -17.57 0 -0.97 31.59 -18.38 12.63 -6.29 0 -1.01 88.45 -50.3 12.65 -6.35 0 -0.71 56.84 -31.51 12.65 -6.22 0 -0.7 12.62 -5.72 0 -1.18 12.65 -5.23 0 -1.63 56.84 -30.55 12.65 -6.24 0 -0.49 12.65 -5.91 0 -0.79 12.63 -5.64 0 -1.01 202.16 -101.49 0 -1.48 12.65 -4.93 0 -1.29 12.64 -5.11 0 -1.07 12.62 -5.35 0 -0.81 12.63 -5.6 0 -0.52 12.65 -6.15 164.25 -76.62 0 -0.6 56.88 -25.01 0 -0.82 12.63 -5.59 31.6 -12.81 0 -1.29 12.64 -5.12 0 -0.45 44.21 -18.75 0 -0.63 88.46 -37.84 31.59 -12.81 0 -0.48 31.59 -12.34 0 -0.77 31.58 -12.02 0 -0.97 31.59 -11.86 0 -0.99 31.6 -11.82 0 -0.86 31.59 -11.97 0 -0.6 31.58 -12.42 101.1 -38.21 0 -0.68 50.54 -18.55 0 -0.38 18.95 -6.03 0 -1.01 50.56 -18.46 18.95 -6.16 0 -0.69 107.38 -37.96 18.97 -6.2 0 -0.3 18.95 -6.11 0 -0.42 18.96 -5.97 0 -0.47 18.95 -5.94 0 -0.49 18.97 -5.91 0 -0.42 18.94 -6.01 0 -0.34 18.96 -6.27 18.94 -6.21 120.05 -38.51 63.18 -19.13 0 -0.47 44.22 -12.34 0 -1.07 18.97 -5.35 0 -0.32 44.22 -12.49 0 -0.62 44.23 -12.21 0 -0.68 157.93 -44.23 25.28 -6.32 0 -0.49 25.26 -5.91 0 -0.84 25.26 -5.59 0 -1.11 227.46 -56.54 0 -0.55 25.29 -6 9.93 -1.97 21.64 -4.29 -21.5 4.63c355.99,889.25 551.83,1859.92 551.83,2876.33 0,2138.2 -866.67,4074 -2267.85,5475.17 -773.88,773.89 -1710.85,1384.72 -2754.93,1776.54zm-0.77 1.3c0.26,-0.43 0.52,-0.86 0.77,-1.3 -0.25,0.44 -0.51,0.87 -0.77,1.3zm-5488.89 -19.94c0.07,0.09 0.12,0.19 0.18,0.28 -0.06,-0.09 -0.11,-0.19 -0.18,-0.28zm-4973.6 -7233.07c0,-1046.28 207.51,-2044.08 583.62,-2954.5l112.47 35.07 18.97 6.06 0 0.37 18.97 5.81 0 0.59 18.92 5.58 0 0.83 18.97 5.37 0 1.02 227.43 76.1 0 0.79 18.97 5.89 0 0.52 18.95 6.43 69.5 24.52 0 1.09 18.95 5.76 0 0.64 18.94 6.41 69.51 25.36 0 0.27 101.08 37.66 0 0.79 50.56 18.6 0 0.63 31.6 11.6 0 1.19 18.92 6.42 31.62 12.2 0 0.61 31.57 11.9 0 0.91 157.96 63.23 0 0.83 31.59 12.32 0 0.5 31.57 12.82 12.64 5.27 0 1.13 31.62 12.28 0 0.54 44.2 18.43 0 0.81 132.7 57.63 56.83 25.33 0 0.31 12.65 5.45 0 0.95 56.85 25.09 0 0.55 12.65 5.29 0 1.11 56.86 25.62 94.77 44.86 12.63 6.09 0 0.32 12.63 5.78 0 0.62 12.65 5.5 0 0.91 12.63 5.25 0 1.16 303.26 152.68 0 1.08 12.65 5.56 0 0.85 12.63 5.86 0 0.55 12.63 6.4 82.12 43.96 0 0.89 12.66 6.02 0 0.39 126.35 69.69 0 0.77 12.65 6.42 31.57 17.92 0 1.31 12.63 5.9 0 0.51 31.6 17.65 0 1.56 12.65 5.74 0 0.66 44.22 25.09 0 0.53 44.23 25.64 94.76 56.7 0 0.95 31.6 18.33 0 0.91 31.57 18.48 0 0.72 31.61 18.85 0 0.38 18.94 11.46 0 1.35 31.59 18.47 0 0.77 101.08 63.77 0 0.29 88.46 57.65 18.95 12.54 0 0.29 18.97 12.38 0 0.43 18.95 12.29 0 0.51 18.94 12.26 0 0.58 18.95 12.25 0 0.54 18.96 12.37 0 0.45 18.97 12.51 0 0.3 18.95 12.81 82.13 57.15 0 0.52 44.22 30.81 0 1.21 18.97 12.35 0 0.48 25.24 17.68 0 1.55 18.97 12.17 0 0.62 25.25 17.74 0 1.49 18.97 12.39 0 0.42 64.33 47.15c-897.17,2817.28 -595.59,5933.59 1079.47,8535.65 -1024.33,-392.43 -1944.04,-996.19 -2705.75,-1757.9 -1401.18,-1401.17 -2267.85,-3336.97 -2267.85,-5475.17zm4726.96 1302.74l3.98 -96.1 2.33 0 5.5 -96.12 0.82 0 6.32 -76.89 4.84 -51.25 1.49 0 4.42 -57.66 1.9 0 3.88 -51.26 2.41 0 3.37 -51.24 2.96 0 3.47 -51.27 2.83 0 4.45 -57.66 1.88 0 5.08 -51.25 1.24 0 5.93 -51.25 0.39 0 6.31 -44.87 5.68 -38.42 0.63 0 5.24 -38.45 1.08 0 3.95 -32.04 2.38 0 4.03 -38.44 2.29 0 4.11 -38.45 2.2 0 4.29 -38.42 2.05 0 3.7 -32.04 2.62 0 4.31 -38.44 2 0 4.92 -38.46 1.4 0 4.78 -32.03 1.53 0 5.9 -38.42 0.41 0 18.95 -96.1 5.2 -25.63 1.14 0 5.5 -32.05 0.81 0 4.68 -25.61 1.64 0 4.02 -25.64 2.29 0 4.78 -32.03 1.53 0 4.13 -25.64 2.21 0 3.53 -25.62 2.78 0 4.73 -32.02 1.59 0 4.42 -25.63 1.9 0 4.1 -25.64 2.21 0 5.4 -32.04 0.91 0 5.43 -25.62 0.89 0 5.46 -25.63 0.85 0 13.67 -58.51c278.84,284.53 529.79,569.12 773.81,885.25l455.52 637.87 286.09 470.28 6.25 12.8 37.84 83.31 1.11 0 5.2 12.81 0.5 0 37.55 89.7 12.58 32.04 18.87 51.25 0.44 0 24.9 70.46 6.26 19.23 0.3 0 6.02 19.22 0.31 0 6.02 19.2 0.28 0 6.09 19.24 25.33 83.28 12.51 44.86 0.29 0 18.67 70.46 0.34 0 24.92 102.51 0.58 0 5.93 25.63 25.15 115.32 6.25 32.06 0.28 0 6.26 32.04 18.84 102.5 6.21 38.42 0.36 0 5.96 38.47 0.34 0 6.04 38.42 18.9 134.54 0.42 0 18.69 153.76 31.42 371.61 0.41 0 6.11 108.91 6.2 153.77c15.84,498.73 -13.84,1024.84 -19.02,1524.97l-48.54 2341.47 -166.33 -220.93 -277.94 -371.59 -1.34 0 -17.61 -25.61 -1.4 0 -11.25 -19.23 -3.03 0 -3.29 -6.41 -1.45 0 -11.17 -19.24 -2.86 0 -3.48 -6.4 -1.14 0 -11.47 -19.21 -2.33 0 -4.01 -6.43 -0.59 0 -5.72 -12.8 -3.51 0 -2.81 -6.4 -1.81 0 -4.6 -6.41 -6.22 -12.81 -3 0 -3.31 -6.4 -1.29 0 -5.03 -12.83 -4.21 0 -2.12 -6.4 -2.45 0 -3.87 -6.41 -0.61 0 -5.7 -12.81 -3.23 0 -3.09 -6.39 -1.38 0 -4.93 -12.84 -4.01 0 -2.31 -6.4 -2.17 0 -4.14 -6.41 -0.32 0 -6.02 -12.81 -2.93 0 -3.37 -6.4 -1.09 0 -5.24 -12.81 -3.7 0 -2.62 -6.42 -1.85 0c-1.47,-2.12 -3.01,-4.24 -4.46,-6.4l-6.31 -12.81 -2.56 0 -3.76 -6.43 -0.56 0 -12.09 -19.2 -0.91 0 -11.72 -19.22 -1.29 0 -30.28 -44.85 -25.51 -38.44 -12.57 -19.21 -12.6 -19.23 -6.2 -12.83 -2.19 0 -4.21 -6.41 -6.25 -12.81 -2.15 0 -4.15 -6.39 -6.31 -12.81 -1.98 0 -10.67 -19.22 -1.51 0 -4.8 -12.82 -3.33 0 -2.99 -6.41 -1.1 0 -5.22 -12.81 -2.88 0 -3.43 -6.42 -0.64 0 -5.7 -12.81 -2.45 0 -3.86 -12.81 -4.24 0 -2.07 -6.41 -2.02 0 -4.3 -12.8 -3.78 0 -2.53 -6.4 -1.4 0 -4.94 -12.83 -2.95 0 -3.37 -6.41 -0.55 0 -5.76 -12.82 -2.11 0 -4.21 -12.81 -3.67 0 -2.64 -6.42 -1.3 0 -5.01 -12.79 -2.85 0 -3.47 -6.43 -0.46 0 -5.86 -12.79 -2.01 0 -10.62 -19.22 -1.15 0 -5.18 -12.82 -2.43 0 -10.21 -19.22 -1.21 0 -17.74 -32.03 -1.3 0 -11.42 -19.23 -44.14 -76.87 -0.5 0 -5.82 -12.82 -1.53 0 -17.44 -32.05 -0.97 0 -5.33 -12.8 -2.02 0 -4.28 -12.81 -2.83 0 -3.57 -6.41 -6.25 -12.82 -0.85 0 -5.47 -12.81 -1.65 0 -4.67 -12.81 -2.44 0 -3.87 -12.8 -3.27 0 -3.04 -6.43 -0.5 0 -5.83 -12.81 -1.29 0 -5.01 -12.82 -2.09 0 -4.25 -12.79 -2.77 0 -3.54 -12.84 -3.33 0 -2.99 -12.78 -3.86 0 -2.46 -6.42 -0.99 0 -5.34 -12.82 -1.53 0 -4.79 -12.82 -2.09 0 -4.21 -12.81 -2.64 0 -3.68 -12.83 -3.19 0 -3.13 -6.4 -0.32 0 -5.99 -12.81 -0.9 0 -5.44 -12.81 -1.24 0 -5.06 -12.81 -1.55 0 -4.78 -12.82 -1.85 0 -29.84 -57.66 -25.16 -51.25 -0.76 0 -5.56 -12.83 -0.84 0 -5.47 -12.8 -0.92 0 -5.4 -12.81 -1 0 -5.32 -12.81 -1.09 0 -5.22 -12.81 -1.16 0 -5.18 -12.83 -1.21 0 -5.1 -12.81 -1.11 0 -5.2 -12.8 -0.96 0 -5.36 -12.83 -0.81 0 -5.52 -12.81 -0.64 0 -5.68 -19.21 -3.56 0 -2.75 -12.83 -3.41 0 -2.91 -12.8 -3.26 0 -3.06 -12.84 -3.11 0 -3.2 -12.81 -2.83 0 -3.48 -12.81 -2.46 0 -3.86 -12.8 -2.05 0 -4.28 -12.83 -1.66 0 -4.66 -12.78 -1.27 0 -5.05 -12.83 -0.89 0 -5.42 -12.83 -0.51 0 -5.81 -19.21 -3.11 0 -3.2 -12.81 -2.65 0 -3.69 -12.81 -2.01 0 -4.3 -12.83 -1.42 0 -4.89 -12.81 -0.82 0 -5.7 -12.8 -44.02 -102.52 -0.87 0 -5.49 -12.81 -6.28 -19.22 -1.97 0 -4.34 -12.82 -1.14 0 -5.2 -12.81 -0.29 0 -6.02 -19.21 -2.08 0 -4.23 -12.83 -1.02 0 -5.3 -19.22 -2.61 0 -3.7 -12.82 -1.55 0 -4.79 -19.22 -3.13 0 -3.17 -12.8 -2.09 0 -4.24 -19.22 -3.67 0 -2.65 -12.82 -2.57 0 -3.75 -12.81 -1.29 0 -5.01 -19.23 -2.56 0 -3.76 -12.81 -1.3 0 -5.02 -19.22 -2.54 0 -3.77 -12.8 -1.28 0 -5.06 -19.24 -2.53 0 -3.78 -12.82 -1.28 0 -5.04 -19.21 -2.25 0 -4.07 -12.81 -0.75 0 -12.11 -32.04 -37.89 -102.51 -6.09 -19.2 -0.82 0 -5.5 -19.24 -1.44 0 -4.9 -19.21 -2.07 0 -4.24 -19.21 -2.5 0 -3.82 -19.23 -2.8 0 -3.51 -19.24 -3.13 0 -3.19 -12.8 -1.21 0 -5.1 -19.22 -1.54 0 -4.8 -19.2 -1.83 0 -4.48 -19.24 -2.05 0 -4.27 -19.23 -2.05 0 -4.26 -19.22 -2.06 0 -4.26 -19.2 -2.07 0 -4.25 -19.24 -2.07 0 -4.24 -19.23 -2.07 0 -4.24 -19.21 -2 0 -4.32 -19.21 -1.69 0 -4.64 -19.23 -1.36 0 -4.96 -19.22 -1.08 0 -5.25 -19.23 -0.76 0 -11.98 -38.42 -12.5 -44.87 -0.8 0 -5.72 -19.22 -6.13 -25.63 -1.48 0 -4.82 -25.59 -2.75 0 -3.58 -19.26 -1.82 0 -4.5 -25.61 -2.7 0 -3.62 -19.23 -1.8 0 -4.51 -25.62 -2.73 0 -3.61 -25.64 -3.56 0 -2.75 -19.21 -2.37 0 -3.96 -25.64 -2.85 0 -3.45 -19.2 -1.68 0 -4.65 -25.64 -2.18 0 -4.14 -25.62 -2.65 0 -3.67 -19.23 -1.17 0 -5.14 -25.62 -1.29 0 -17.65 -70.46 -12.64 -57.68 -0.99 0 -5.32 -25.63 -0.72 0 -5.62 -32.03 -1.95 0 -4.36 -32.04 -2.76 0 -3.55 -25.63 -2.12 0 -4.2 -32.02 -2.87 0 -3.44 -25.63 -2.21 0 -4.13 -32.04 -2.57 0 -3.74 -32.03 -2.86 0 -3.46 -25.63 -1.79 0 -4.53 -32.04 -2.09 0 -4.22 -32.02 -1.93 0 -4.38 -25.63 -0.54 0 -5.78 -32.05 -0.34 0 -12.29 -70.48 -0.6 0 -5.74 -38.43 -1.03 0 -5.28 -44.84 -2.57 0 -3.75 -38.46 -2.48 0 -3.85 -38.43 -2.4 0 -3.92 -44.85 -3.24 0 -3.07 -38.44 -2.61 0 -3.7 -38.45 -1.97 0 -4.35 -44.85 -2.11 0 -4.21 -38.44 -0.91 0 -18.05 -153.75 -1.28 0 -5.01 -64.08 -2.19 0 -4.13 -64.06 -2.63 0 -3.7 -64.06 -2.48 0 -3.84 -64.08 -1.99 0 -4.33 -70.46 -1.34 0 -11.28 -211.45 -2.59 0 -3.75 -147.36 -2.79 0 -3.53 -147.35 -0.58 0c-0.95,-49.13 -1.58,-98.26 -1.7,-147.37l2.28 0 5.9 -397.21 0.42 0 4.14 -96.12 2.2 0 3.48 -96.08 2.83 0zm-3028.86 -7347.66c-1547.03,1547.02 -2503.94,3684.26 -2503.94,6044.92 0,2360.66 956.91,4497.91 2503.94,6044.92 1547.01,1547.03 3684.26,2503.94 6044.92,2503.94 2360.66,0 4497.9,-956.91 6044.92,-2503.94 1547.03,-1547.01 2503.94,-3684.26 2503.94,-6044.92 0,-2360.66 -956.91,-4497.9 -2503.94,-6044.92 -1547.02,-1547.03 -3684.26,-2503.94 -6044.92,-2503.94 -2360.66,0 -4497.91,956.91 -6044.92,2503.94z"/>
 </g>
</svg>
