<?xml version="1.0" encoding="UTF-8" standalone="no"?>
<svg id="svg2" xmlns:rdf="http://www.w3.org/1999/02/22-rdf-syntax-ns#" xmlns="http://www.w3.org/2000/svg" height="1803pt" width="892pt" version="1.1" xmlns:cc="http://creativecommons.org/ns#" xmlns:dc="http://purl.org/dc/elements/1.1/" viewBox="0 0 892 1803">
<path id="path4" d="m377.1 0h1.76c5.13 5.41 15.72 0.61 21.46 7.25 15.17-0.66 33.51 1.1 40.19 17.43 22.2 3.34 34.43 27.97 57.79 26.89 23.78 4.24 30.19 32.65 51.65 40.29 11.37 5.35 6.19 21.61 13.97 29.18 10.77 9.12 29.12 17.33 24.97 34.83-4.65 22.75 6.87 45.84 0.36 68.13-15.24 6.88-8.21 22.24-2.21 32.98 7.14 6.85 18.17 9.97 22.02 19.9 11.19 19.54-3.03 44.75 10.75 63.38 17.35 21.1 26.97 47.01 40.47 70.53 25.51 74.5 42.1 151.84 56.98 229.07 11.26 46.38 10.22 94.95 21.91 141.27 8 28.4 12.09 57.6 20.77 85.86 16.16 42.97 29.32 86.96 45.09 129.99 10.07 27.82 23.61 54.42 32.41 82.52 18.45 23 29.21 51.5 40.45 78.5-5.9-1.4-5.51 0.3 1.2 1.4-7.77-0.2-0.77 8.1 1.22 11.6 1.33-3.5-1.29-7-1.83-10.5 5.98 5.1 9.36 12.3 13.52 18.7v2.6c-10.38 15.3-24.1 28.3-35.51 42.6 2.9 11.4 9.1 22 12.45 33.4-9.04 6.2-11.12 17.7-21.09 23.1-22.07 12-32.92 37.2-55.89 47-51.17 34.5-110.47 76.9-175.67 59.7-33.43-2.1-29.9-43.7-44.99-64.1-10.69-0.1-20.63 5.3-31.28 6.4 16.72 32 31.74 64.6 44.65 98.4 30.68 64.8 58.92 130.9 87.21 196.8 5.35 17.1 15.76 32.4 18.79 50.1-18.06 7-30.58 27.4-49.47 36-17.62 10.2-38.39 13.9-56.88 22-9.13 13.8-19.19 26.4-36.03 30.1-8.41 5.4-24.04 0.2-28.86 10.2-30.28 10.3-64.39 6.2-95.86 13.8-22.42 9.1-46.57 12-70.86 11.4-20.2 6.8-39.02-6.7-57.64-12.4-9.13-2.8-16.11 5.7-22.98 9.9-16.98 3.1-35.02 0.6-51.52 6.8h-4.58c-28.9-3.8-59.73-3.9-85.33-19.8-29.23-3.1-58.65 7.1-88.01 2.5-12.5-5-11.43-21.1-14.22-32.1-26.17-109.1-1.61-220.4 7.01-330.1 9.04-51.3 13.65-103.1 17.83-155 1.53-20-2.01-39.9-5.79-59.5 0.22-61-23.13-119-24.63-179.8-3.98-16.4-0.88-33.75-4.99-49.95-14.16-12.82-14.86-32.43-17.86-49.87v-10.22c-0.02-3.58 2.49-7.94 0-11.06v-1.83c1.68-10.53 4.15-21.02 11.24-29.39-1.34-58.2 6.68-117.02 22.32-173.29 5.24-18.62 12.73-36.74 15.99-56.02 8.31-28.57 21.62-55.39 30.12-83.9 9.35-26.72 24.31-51.64 32.25-78.61-25.61-2.94-50.07-16.37-69.28-33.71-10.71-13.43-28.59-21.41-27.33-41.08 39.78-85.36 39.29-181.8 61.86-272.37 22.63-45.46 69.22-69.21 107.61-99.08 7.14-7.62 17.64-13.91 28.34-12.29 3.39 22.37 22.76 43.14 46.97 38.72 31.95 6.04 73.6 3.18 90.51-29.58 10.07-7.12 6.63-20.46 11.47-30.4 3.58-4.69 10.27-2.66 15.03-5.27m6.33 13.27c-7.3 1.59-6.44 9.35-9.6 14.58-51.82 71.67-128.45 119.54-203.68 163.33-9.56 5.5-24.17 6.82-28.25 18.69-4.24 6.7-11.26 13.24-10.3 21.74 7.63 1.36 12.67-7.48 19.4-9.63 72.21-33.54 134.21-84.43 193.99-136.01 12.07-17.24 21.76-36 33.95-53.15 9.92-1.48 21.1-20.47 4.49-19.55m31.68 7.21c-7.82 0.73-14.57 6.64-18.22 13.39-26.26 24.3-43 56.66-58.47 88.55-34.09 58.92-68.83 117.61-94.21 180.88-9.88 33.41-32.66 63.9-47.38 96.49-27.48 38.03-63.03 71.77-84.93 114.12-3.38 4.02-9.74 16.37-5.57 16.63 22.5-32.91 48.63-60.6 73.54-91.67 48.39-63.4 93.72-130.83 129.52-202.52 17.07-35.98 36.62-70.88 59.44-103.53 25.42-32.44 58.7-57.09 93.46-78.52-2.72-11.99-25.07-19.25-33.65-7.52-10.26 11.75-20.62 23.47-32.14 34.04-1.72 0.63-3.13-0.53-2.14-2.26 8.72-12.78 19.7-23.75 29.51-35.65 7.58-8.06 6.04-26.63-8.76-22.43m-209.82 16.78c-6.17 3.75-12.08 10.24-13.22 17.48 11.89 20.86 36.75 29.64 59.02 34.16 20.92-4.83 53.41 6.71 64.8-17.16-25.28 3.84-50.88 0.81-75.98-1.62-9.47-5.59-21.49-8.53-26.81-19.24-4.02-3.37-2.81-12.47-7.81-13.62m-20.72 21.1c-2.9 2.67-11.25 5.86-7.32 10.3 15.72 22.67 44.83 29.57 70.39 34.91 14.38-1.61 35.05 5.54 43.32-9.65-33.77 4.14-71.27 0.01-96.42-25.44-3.94-2.04-4.59-11.44-9.97-10.12m285.47 1.89c-39.74 19.48-75.7 47.98-101.9 83.88-38.55 57.69-63.16 123.43-101.44 181.57-36.63 54.79-72.49 110.34-117.78 158.33-6.23 8.81 6.68 3.99 6.92-1.24 34.8-29.23 65.05-63.08 99.86-92.1 80.61-89.42 121.37-208.17 209.46-291.53 8.92-6.61 16.56-16.11 28.28-17.7 4.54-3.24 15.14 3.19 14.03-5-6.85-15.18-23.42-17.05-37.43-16.21m-303.86 8.01c-12.53 4.51-24.64 11.32-34.45 20.49-31.69 18.44-55.25 53.72-50.14 91.28-6.72 11.7-2.82 26.01-4.54 38.97-3.06 18.47-3.58 37.2-0.5 55.66 2.7 21.47 10.7 49.59 35.35 54.25-9.34-41.44-1.04-84.85 17.51-122.63 9.94-30.87-19.1-60.52-10.23-92.07 2.31-3.52 5.9 1.3 8.07 2.68-2.87 23.33 12.39 46.6 14.56 70.05 17.72-7.78 32.59-21.32 51.42-26.65 25.37-14.73 48.77-32.44 73.16-48.76-30.59-1.27-61.92-10.45-86.47-29.42-5.73-3.35-6.51-13.36-13.74-13.85m341.32 16.22c-18.08-0.38-30.38 12.54-43.98 22.03-37.1 37.27-64.82 82.36-94.12 125.87-28.25 50.44-57.55 100.79-94.33 145.68-10.94 17.8-30.78 27.33-44.2 42.81-21.07 20.85-42.94 41.73-64.94 61.03-51.14 43.14-84.57 106.04-101.69 169.38-11 43.8-30.68 85.12-33.29 130.49 34.4-41.62 67.77-88.62 108.78-123.87-18.57 30.62-48.26 52.63-68.56 82.26-7.75 14.13-22.33 23.46-28.3 38.68-11.85 15.76-21.16 37.27-14.94 55.99 17.2-20.2 36.02-40.4 59.21-54.7 23.7-21.09 52.45-34.59 80.74-48.24 53.98-32.23 92.94-85.27 114.29-143.75 16.19-66.89 26.92-135.32 43.93-202.05 16.11-46.65 42.73-88.29 66.83-131.17 42.31-58.37 93-114.05 159.19-144.03-3.58-6.31-11.14-8.9-17.52-11.42-4.85-10.94-15.92-16.09-27.1-14.99m-178.3 24.95c-20.94 16.61-40.99 35.18-64.05 49.68-38.62 34.55-86.59 55.6-131.36 80.62-9.36 2.85-8.49 15.44-10.88 23.15-1.06 2.07-1.79 6.74 1.93 6.02 44.27-23.04 91.23-42.11 130.57-73.51 15.81-13.81 38.31-21.56 46.53-42.45 6.56-15.33 23.55-29.72 27.26-43.51m223.34 17.08c-21.26 9.66-39.39 26.52-62.35 32.56-9.72 5.42-17.33 13.85-26.97 19.12-27.03 30.28-56.68 59.75-74.27 96.77-26.62 47.08-55.01 95.04-66.1 148.45-7.04 45.03-17.59 89.48-26.24 134.25-0.83 6.58-5.39 12.32-3.05 19.27-8.36 30.51-23.39 59.68-43.55 84.13-15.88 29.27-42.56 50.63-68.33 70.65-28.03 15.79-59.66 25.83-83.8 48.16-27.6 18.68-52.35 41.22-71.33 68.73-2.74 5.38-5.18 15.24 4.18 14.36 46.14-55.65 124.28-64.94 174.64-115.6 42.29-31.44 79.33-72.21 97.75-122.23 14.21-23.67 18.86-51.38 19.65-78.77 15.72-62.52 23.4-126.95 43.36-188.21 34.99-68.52 81.17-131.95 136.42-185.6 19.2-12.99 37.51-28.64 60.28-34.93 1.06-5.76-5.61-10.82-10.29-11.11m5.93 21.84c-13.34 4.8-25.03 12.81-38.06 17.9-60.43 52.47-106.18 119.62-145.36 188.93-7.85 22.57-16.55 45.15-18.8 69.06-8.76 43.19-18.43 86.27-27.75 129.39-5.12 82.69-56.87 156.42-124.13 202.74-48 47.37-119.9 56.02-165.02 106.98-15.56 13.07-31.04 32.91-23.67 54.42 0.97 6.6-3.66 31.73 5.86 20.63 8.84-18.72 23.9-32.04 39.3-45.58 66.27-58.38 153.91-86.87 211.82-155.28 1.27-3.69 3.51-8.13 8.19-7.12 16.32-19.68 31.61-40.66 42.06-63.57 26.8-51.36 30.27-110.96 49.19-164.88 4.71-10.17-1.27-23.01 8.89-31.11-7.45 4.13-15.58 4.01-23.63 3.55-1.68-10.33 5.92-19.64 11.98-27.31 4.19-21.9 15.24-41.53 25.61-61.15 10.63-18.54 32.18-30.09 37.47-51.51 14.63-34.69 28.94-70.65 56.75-97.27 14.98-20.16 37.03-32.11 57.94-45.07 9.08-5.03 20.9 1.15 27.18-9.75-4.67-11.02 1.45-33.39-15.82-34m-275.66 37.84c-7.67 2.84-14.66 7.42-20.49 13.14-40.76 33.08-90.48 51.02-135.93 76.12-9.76 2.59-3.31 15.57-7.14 22.59 7.19 33.53 27.5 61.77 37.23 94.45 5.24 6.84 5.21 18.78 13.29 22.42 18.63-26.49 29.9-57.51 41.52-87.64 17.83-49.88 51.11-92.65 71.52-141.08m274.11 28.25c-24.24 13.8-50.81 25.96-65.21 51.25-12.53 14.18-22.58 30.92-27.69 49.1 18.95-12.22 30.8-37.82 55.04-43.65 12.18-15.03 32.09-14.26 48.4-18.62-3.44-11.91-1.99-29.76-10.54-38.08m-3.36 49.14c-11.99 0.12-21.4 7.84-30.98 14.04-19.36 6.83-34.77 22.35-45.29 39.59 21.96-8.47 43.99-19.2 67.96-20.97 16.94-0.44 33.06 5.18 47.6 3.82 6.06-21.68-19.36-39.54-39.29-36.48m-483.31 12.63c-3.84 9.77-6.17 21.2-9.29 31.57 6.17 10.27 8.36 22.57 13.77 33.37 10.3 14.96 30.04 24.35 48.12 19.74 1.03-24.78-25.54-29.38-37.83-45.94-9.15-10.82-6.88-29.98-14.77-38.74m473.41 31.33c-13.59 1.38-27.17 2.85-39.79 8.36-47.4 19.54-96.77 53.6-111.46 105.71-3.64 9.26 7.23 2.46 11.21 1.05 24.84-35.6 56.88-68.43 98.43-83.61 9.11 0.98-3.91 5.92-6.45 7.56-33.14 14.3-58.96 40.72-79.49 69.77-0.36 5.14 9.79 1.83 11.36-1.98 17.03-28.43 46.56-47.62 78.3-55.61 16.88-5.21 40.12-13.26 53.3 3.14 19.41 13.54 31.8 34.07 39.45 56.05 0.25 9.36 1.02 19.61 7.63 26.92 28.48 40.46 51.1 85.32 62.41 133.6 0.34 8.62 6.58 14.77 9.23 22.75 13.42 55.02 25.49 110.78 46.23 163.53 0.36 2 2.35 0.62 1.87-0.84-7.86-35.25-11.6-70.82-17.76-106.06-7.3-48.51-20.65-95.8-32.56-143.41-13.08-33.04-16.74-69.41-32.4-101.64-11.5-26.89-20.76-55.02-38.38-78.6-16.3-15.58-37.37-30.13-61.13-26.69m-483.13 4.8c-7.53 15.99-9.64 34.49-17.31 50.7 12.55 22.86 38.26 33.91 60.85 44.92 11.93 4.29 24.38 12.58 36.78 10.96-4.73-17.98-7.6-37.27-16.21-53.74-18.36 5.36-35.53-5.54-49.38-16.45-7.4-10.78-11.54-25.86-14.73-36.39m474.17 46.17c-18.13 3.73-37.25 6.49-52.94 16.74 13.14 4.96 31.27 0.05 45.42 6.59 12.63 6.28 24.44 14.39 37.79 19.16 10.65 4.77 15.96 16.65 26.22 21.73-4.3-20.16-15.32-39.47-32.16-51.77-7.01-5.76-14.08-15.7-24.33-12.45m-496.42 18.71c-8.49 8.54 6.45 17.28 12.67 21.82 26.03 23.42 58.65 39 92.34 47.73 9.75 2.78 6.23-7.12 3.29-11.66-31.18-2.86-56.61-23.82-83.36-38.31-9.09-5.47-14.59-16.53-24.94-19.58m445.92 15.22c-18.45-1.36-38.56 11.72-43.04 29.27 5.85-2.59 11.28-2.61 17.29 0.96 41.81 0.72 87.56 13.08 114.09 47.79 28.24 36.77 49.79 78.5 66.44 121.66-0.66 4.01-7.45-4.74-8.26-6.9-17.02-36.97-36.68-72.6-59.57-106.35-13.24-15.26-27.66-31.66-47.92-37.06 21.7 21.64 34.54 49.74 49.83 76.11 24.79 53.13 50.76 106.07 71.35 160.63 11.67 47.56 30.07 93.33 43.52 140.52 10.99 30.36 16.08 62.18 28.47 92.5 25.07 59.48 45.24 121.03 73.04 179.23 10.27-1.8 16.63-12.6 23.23-20.2 10-14.5-4.18-29-7.51-43.8-19.46-41.14-29.04-86.26-46.33-128.6-7.38-19.48-8.26-41.72-19.49-59.58-29.31-67.87-46.05-143.43-67.38-214.65-16.02-57.13-32.04-117.53-70.82-164.1-25.49-38.1-68.56-72.47-116.94-67.43m-453.6 4.97c-6.94 5.12-7.95 12.16-1.42 18.47 6.09 17.97 25.48 22.48 38.99 32.94 21.3 8.28 41.66 23.02 65.57 17.07 2.89-3.05 11.49-10.87 3.61-12.12-30.46-10.86-63.2-18.45-89.06-39.05-6.86-3.94-8.88-17.6-17.69-17.31m393.73 35.08c-18.53-0.65-32.9 8.1-44.2 20.4 5.31-1.79 10.77-3.91 16.61-1.78 1.52 5.09-6.91 2.51-7.93 5.67 17.3 0.74 30.97 14.94 37.69 30.81-1.54 5.89-4.98-4.19-8.41-3.6 5.66 13.03 9.89 27.61 7.25 41.84 4.97 28.91 4.35 58.35 3.87 87.44 0.13 64.56 4.81 128.3 1.15 192.62 3.63 29.14-3.8 57.93-0.67 86.94-5.8 11.56 2.03 25.59-2.54 37.6-2.06 70.47 0.63 140.77 2.38 210.87 7.44 29.6 1.4 60.9 6.58 90.7 48.35-39.1 113.12-60.1 175.47-53.8-13.6-60-34.51-118.7-39.15-180.63-18.09-121.35-28.57-242.93-43.33-364.62-11.8-52.89-22.51-107.28-48.96-155.08-13.51-20.36-30.66-41.03-55.81-45.38m44.23 0.69c-1.6 2.87-8.16 5.79-3.92 9.14 13.29 8.32 26.11 18.6 33.07 32.83-11.46-6.22-3.58 6.86 0.33 11.93 30.44 67.74 41.93 141.99 50.42 215.11 14.18 93.25 22.14 186.95 36.13 280.08 11.04 44.53 14.27 90.53 26.71 134.73 11.83 40.6 21.13 83 34.36 122.4 25.32-10.2 50.02-25.4 73.76-40 29.92-16 61.05-39.4 68.99-73.8-7.07-15.4-13.2-31.3-20.45-46.6-6.55-24.7-24.66-44.6-28.59-70.3-19.36-47.74-37.03-95.77-49.03-145.99-9.72-39.24-26.37-76.22-38.43-114.65-22.37-61.15-39.61-124.54-69.15-182.82-12.43-24.21-23.25-49.23-37.33-72.69-17.35-27.18-39.78-62.24-76.87-59.37m-89.56 24.77c5.58 3.82 13.7-1.97 0 0m-5.62 113.4c-11.78 5.28 0.45 20.8 2.63 29.64 11.41 26.84 22.71 57.33 42.97 76.98 1.55-4.7-0.21-13.01-0.96-18.81-21-25.25-27.15-62.3-44.64-87.81m-1.71 47.13c-19.19 4.99-13.89 38.16 3.02 44.78 12.14 20.74 34.3 34.95 41.65 58.61 7.03-0.84 1.67-10.27-1.47-13.09-3.25-19.04-15.62-34.73-21.96-52.67-8.76-11.21-12.49-29.75-21.24-37.63m-14.23 37.81c-2.31 7.02-7.69 11.02-12.17 15.96 23 62.03 32.34 131.22 73.18 185.15 1.71-36.83 1.12-73.81 1.48-110.76-4.78-10.98-11.59-21.25-18.73-30.82-18.85-16.33-27.06-43.87-43.76-59.53m-16 20.98c-14.89 13.23-3.29 27.6 2.09 41.25 8.75-0.54 5.08 11.74 11.65 13.26-3.45-17.58-1.57-42.31-13.74-54.51m-15.17 30.99c-6.75 3.72-10.16 11.32-14.87 17.14 0.86 17.13 7.78 33.45 10.8 50.35 28.04 93.78 56.78 186.99 86.61 280.25 0.56 2.9 7.24 13 7.61 6.1-0.04-48.4 0.41-96.78 1.29-145.15 0.03-25.88-12.63-49.45-26.11-70.67-7.8-23.89-22.87-44.24-30.73-68.15-10.64-23.54-21.32-48.9-34.6-69.87m-24.88 28.87c-5.13 8.3-19.84 14.04-15.29 25.62 9.79 30.54 23.77 59.45 32.96 90.23 8.51 40.33 32.99 74.77 44.84 113.98 5.71 10.72 8.32 26.1 18.01 32.77-22.53-80.39-54.16-158.28-73.11-239.7-2.8-7.11-1.23-19.38-7.41-22.9m-23.06 25.15c-5.54 6.7-17.93 11.24-13.69 21.98 2.16 21.27 6.63 42.3 13.61 62.51 11.82 43.13 22.06 86.71 37.22 128.75 9.76 24.31 20.76 48.08 30.57 72.38 13.17 39 33.17 75.3 48.58 113.5 11.3 24 17.85 50.2 29.78 73.9-0.41-39.6-3.26-80-6.55-119.2-13.18-43-26.8-85.7-50.92-124.01-16.28-48.82-44.07-93.54-56.13-143.78-10.1-28.58-20.09-60.14-32.47-86.03m-21.97 19.98c-4.87 5.07-13.07 5.24-17.23 11.26 1.72 29.5 13.75 57.23 16.78 86.56 1.63 33.24 14.42 64.58 15.61 97.8 4.38 45.62 20.68 88.92 27.03 134.22 12.69 43.9 17.34 89.8 30.9 133.5 11.62 57.3 28.37 113.4 38.99 170.9 19.36 59.1 29.18 121.8 41.91 183.1 0.48 12.6 1.7 26.8 9.14 37.4 39.69-2.3 79.04-15.6 113.36-35.5-8.7-46.3-23.99-91.1-37.81-136.4-9.77-33.1-19.19-66-32.07-98.1-8 6.8-18.24 10.5-28.95 11.9-7.84-35.9-3.79-75.7-8.89-112.9-18.37-51-37.74-101.9-61.44-150.7-14.66-46.4-35.07-90.6-53.43-135.62-19.68-58.92-35.47-118.79-49.63-179.21-0.57-5.63 0.62-15.86-4.27-18.21m-27.38 19.16c-6.91 5.06-15.63 8.22-21.84 14.01-0.99 21.58 2.3 43.24-1.06 64.69-3.32 90.77 1.66 181.58 1.42 272.48 0.73 43.7 12.7 86.8 19.12 129.8 15.51 105.3 44.48 208.4 54.12 314.7 4.59 14.3 0.63 30.6 7.58 43.6 37.89 8.1 78.56 3 115.61-7.1-9.94-85.6-34.79-169.1-54.89-252.6-24.12-74-38.42-150.4-56.06-225.9-7.06-42.4-19.51-83.9-24.77-126.6-14.89-73.8-24.1-148.55-36.9-222.77-0.54-1.27-0.66-4.99-2.33-4.31m-30.58 18.83c-6.62 4.45-15.85 9.14-14.1 18.6-5.69 17.37-4.07 35.67-4.51 53.64-0.21 28.91-6.33 57.91-2.2 86.86 2.44 14.53-1.51 32.55 11.16 43.05 6.14 26 3.47 57 11.13 80.4 0.47-55.7-3.18-111.56-0.46-167.37-5.07-38.25 6.31-76.29 1.54-114.45-0.54-0.93-1.39-1.17-2.56-0.73m-28.97 20.17c-3.95 2.55-8.97 3.25-12.19 6.94-18.31 81.47-10.84 165.14-11.42 248.14 1.61 43.6 14.45 86.1 14.58 129.9 4.49 55.9 12.09 111.8 7.75 168 1.39 90.2-13.49 179.7-24.86 268.9 14.09 9.3 32.24 3.3 47.94 2.9 29.03-0.9 55.62-13.1 82.61-22.2 2.55-55.2-17.48-110.7-26.52-165.4-9.08-45.4-20.69-90.3-29.21-135.8-10.18-64.6-20.9-129-30.62-193.3-14.82-92.6-19.13-186.78-15.88-280.33-2.88-8.64 5.92-23.45-2.18-27.75m-33.02 31.9c-28.82 9.51-53.36 29.16-72.43 52.15 4.08 34.09 16.99 66.56 21.58 100.53 10.13 28.6 9.58 59.7 18.83 88.6 7.47 51.5 24.85 101 33.87 152.1 2.41 8.5 4.63 20.8 11.79 25-6.73-68.4-15.37-136.7-16.05-205.6-1.68-67.9 0.47-135.67 4.99-203.28-1.31-2.28 3.09-11.78-2.58-9.5m-84.06 63.99c-7.93 8.13-14.73 17.72-18.79 28.38-2.57 34.33 4.12 67.51 6.09 101.71 0.42 24.1 11.89 46.6 10.95 70.7 3.38 14.2 3.11 31.5 11.86 42.7 2.2-34.5 0.49-69.8 0.95-104.4 5.45-44.6-3.45-88.85-4.55-133.34-3.94-0.03-3.93-5.34-6.51-5.75m18.59 72.89c3.24 27.8-0.69 55.6-1.43 83.5 3.8 23.4-1.92 47 0.51 70.4-1.26 39.9 2.6 80.2-3.83 119.8-0.42 3.2-3.28 1.6-5.35 1.3-0.7 60.1-6.62 120.6-19.3 179.4-7.71 64.6-13.75 130-7.08 194.8 28.77 5.9 58.74-3.4 88.03-3 2.8 6.7-7.12 6.8-11.02 8.1-25.67-1.1-51.59 6.9-77.09 2.7 1.73 11.8 0.89 24.2 4.81 35.6 30.21 9.3 61.25 1.3 91.32-4.3 2.59-11.3 1.88-23.2 1.79-34.6-3.93-4.8-7.22-15.5 2.21-13.6 3.84-50.7 16.54-100.3 19.42-151.4 2.52-45.8 6.78-91.5-6.03-136-13.29-79.1-35.9-156.4-51.93-234.9-7.38-39.3-11.54-81.5-25.03-117.8m749.53 61.2c-5.69 10-13.63 18.9-24.25 23.8-6.34 8.8 3.27 19.2 5.91 27.6 2.85 4.4 4.36 16.3 11.82 12.3 9.34-6.7 19.39-13.7 24.98-24.1-7.38-11.8-8.91-31-18.46-39.6m20.88 48.9c-9.03 8.3-17.46 17.1-28.18 23.2 0.95 9 6.17 17.9 11.31 25.3 11.18-1.7 20.9-10.9 27.93-19.5-2.23-9.6-4.89-22.1-11.06-29m-48.1 18.1c-10.51 19.1-23.75 37.6-42.49 49.4-33.83 20.8-67.37 43.6-103.55 59.5 4.14 18.2 11.89 35.9 17.53 53.9 8.64 4.2 3.12 15.1-0.67 21.9 8.63-0.1 16.77 5 25.22 0.2 55.7-19.1 106.75-55.5 138.83-105.3-0.39-11-8.02-27.3-14.71-33.5-14.25 22.3-34.93 39.4-56.17 54.7-27.48 20.4-57.42 37.8-90.05 48.1-3.17 2.7-9.37-2.3-3.99-4.1 32.76-10.6 62.45-28.9 90.71-48.3 21.19-16.8 44.52-33.6 55.91-59-4.95-12.4-10.02-26.8-16.57-37.5m66.97 15.8c-6.54 8.2-21.02 13.2-31.05 21.2 1.98 13.2 12.04 23.7 18.86 34.6 9.88-8.7 16.53-20.2 24.64-30.2-4.38-7.7-6.42-19.8-12.45-25.6m-275.82 29.4c-54.09 4.3-110.52 22-149.27 61.7 2.44 8.6-1.7 22.1 5.57 27.4 51.99-37 115.39-57.5 179.27-56.6-1.8-10.6-4.2-21.2-6.51-31.7-9.6-0.9-19.39-1.2-29.06-0.8m31.83 37.9c-63.62-1.5-125.55 21.8-176.06 60-0.55 12.3 1.13 24.6 2.5 36.8-2.09 4.8 4.44 6.4 6.23 2.7 30.91-20.8 64.49-41.9 102.51-44.5 28.13-4.5 60.13-7.6 86.63 1.8-9.63 4.7-27.16-1.8-40.3 0.7-56.04-2.6-111.06 19.5-153.1 55.9-1.09 7.5 1.3 15.9 0.4 23.7 4.4 2.7 8.59-8.5 10.95-1.6 19.5-14.9 43.52-21.2 66.1-29.8 11.33-10.6 27.22-9.9 41.75-12.4 27.62-6.9 58.17-6.6 84.9-9.9-8.82-25.8-15.37-52.3-24.64-77.9 0.33-4.8-4.4-5.8-7.87-5.5m215.06 5.7c-39.06 51.6-95.37 91.7-158.96 106.3-22.5-7.3-37.04 17.7-44.28 35.3 19.99 12.6 46.56 5.3 69.05 1.3 26.55-5.2 46.2-24.9 68.67-38.3 22.2-18.9 48.38-33.2 67.86-55.2 2.89-8 11.9-10.9 16.32-17.6-7.92-9.5-8.44-25.1-18.66-31.8m-200.85 91.2c-8.67 2.8-17.72 3.6-26.72 3.3-13.01 12.1-10.49 44.1 10.62 45 10.82-11.6 15.53-28.3 27.74-39.6 8.53-8.4-5.73-9.1-11.64-8.7m-110.79 19.2c-15.65 7.2-31.92 13.7-46.58 22.7 4.51 19 13.36 36.8 19.4 55.2 6.89 20.3 10.09 42 19.94 61.2 8.48 42.9 26.79 83.1 34.87 126.1 25.57-3.8 50.29-13.8 72.47-27 3.92-2.1 5.33-7.6 3.32-11.5-30.73-70.3-60.35-141-88.92-212.4-2.62-6.8-8.75-13.4-14.5-14.3m108.56 243.8c-25.01 11.8-50.7 21.8-77.59 28.2-1.08 10.7 4.66 21.5 7.01 31.9 30.24-0.4 59.88-15.9 83.32-33.6-5.12-8-5.52-21-12.74-26.5m-97.49 30.9c-35.25 18.5-74.98 26.8-113.67 32.7 4.71 29.4 6.63 59.8 17.33 87.7 19.36 2.5 38.77-7.1 57.02-13.3 21.67-10.6 46.81-17.3 63.57-35.5-4.18-8.8-1.92-22.3-8.91-28.7-30 21.8-67.89 27.4-104.06 29.7-1.77-0.8-11.48 0.2-9.34-3.5 38.43-3.9 80.17-7.8 110.38-34.4 4.27-5.5-2.07-12.2-2.04-18-3.38-5.4 0.21-20.7-10.28-16.7m111.69 5.1c-24.67 14.1-50.54 28.7-79.62 30.2-1.98 0.2-4.46 0.9-3.76 3.4 2.87 12 4.36 24.5 9.23 35.9 31.23-9.9 61.99-25.5 87.33-46.4-2.63-7.5-5.31-20.3-13.18-23.1m-241.15 26c-36.17 6.4-73.29 11.3-112.23 4.9-0.14 14.7 3.55 28.9 4.05 43.5 6.8 10.5 21.87 10.2 32.94 9.2 24.72 0.1 47.31-11.1 71.47-14.4 2.02-5.6 18.82-3 8.74-6.8-6.51-3.7 6.67 1.9 3.81-4.8-3.51-9.4 0.97-27.1-8.78-31.6m257.03 5c-28 18-57.85 34-89.31 45.1 0.63 7 1.95 13.9 3.6 20.7 5.49 4.8 11.73-1.1 17.4-2.3 27.74-4.9 53.88-19.4 72.12-40.8 7.76-6-0.77-17.5-3.81-22.7m-385.81 3c-41.01 15.7-86.27 27.8-130.34 18.8-2.26 8.1-0.83 19.4 0.15 28.3 18.96 17.8 47.46 12.2 70.9 11.6 23.4 2.9 45.59-7.5 66.72-16.3 4.29-10.6-2.35-22-1.44-33-0.91-3.5 0.62-12.5-5.99-9.4m135.94 38c-36.68 10.9-76.13 23.3-114.37 13.8 2.61 13.8-5.99 35.9 10.88 42.9 28.44 13.3 59.6 0.7 88.07-6 7.68-5.7 27.04-4.4 22.08-18.1-3.67-9.7-1.13-26.2-6.66-32.6m148.3 5c-37.74 19.6-76.41 40-119.23 45.1-5.55 0.8-0.49 6.6 2.75 7.3 4.09 6.1 0.82 14.8 3.3 21.7 44.25 7.2 85.65-14.9 121.22-38.8-5.73-10.8-4.37-23.4-8.04-35.3m-277.39 8c-16.79 4.9-32.88 13.6-50.49 15.3-28.94-2.8-60.13 3.9-86.8-10.7-5.82 8.3-3.16 23.1-2.72 33.2 9.05 17 30.56 12 46.3 13.4 33.41 4.3 67.68-1 98.88-12.4-1.48-11.9 0.81-30.2-5.17-38.8m-152.91 3.8c-27.88 7.2-57.06 10.3-85.24 2.9-2.65 10.3 0.26 24.5 5.46 34.5 25 0.2 50.12-3.4 74.98-6.3 3.8 0.2 2.63 4.8-0.71 4.7-24.08 5.2-48.98 6.6-73.54 6.7 0.49 5.9-2.45 14.6 5.75 16.3 22.07 7.1 45.24-1 67.74 0.2 14.47-0.2 4.26-16 7.67-24.2-3.17-10.5 6.02-29.5-2.11-34.8m288.61 32.3c-37.85 14-79.71 26.4-118.72 10.3 1.27 5.7-2.68 14.4 4.01 17.9 32.68 26.7 78 13.2 114.7 4.3 6.38-7 4.38-26.8 0.01-32.5m-132.81 10.8c-14.76 3.6-29.49 7.3-44.29 10.7-21.18 1.9-42.8-2.4-63.55-1.9-9.21 1.6-24.42-1.4-35.11-4.9-3.89 11.1 1.95 23.6 13.98 26.5 13.53 7.6 29.02 7.1 43.78 10.3 30.45 7.3 61.47-3.9 88.41-14.8 0.89-7.4 1.69-21.9-3.22-25.9z"/>
</svg>
