<?xml version="1.0" encoding="iso-8859-1"?>
<!-- Uploaded to: SVG Repo, www.svgrepo.com, Generator: SVG Repo Mixer Tools -->
<svg fill="#ffffff" version="1.1" id="Layer_1" xmlns="http://www.w3.org/2000/svg" xmlns:xlink="http://www.w3.org/1999/xlink" 
	 viewBox="0 0 496.008 496.008" xml:space="preserve">
<g>
	<g>
		<g>
			<rect x="104" y="136.004" width="16" height="16"/>
			<rect x="120" y="168.004" width="16" height="16"/>
			<rect x="136" y="200.004" width="16" height="16"/>
			<rect x="152" y="232.004" width="16" height="16"/>
			<rect x="168" y="264.004" width="16" height="16"/>
			<rect x="192" y="296.004" width="16" height="16"/>
			<rect x="376" y="136.004" width="16" height="16"/>
			<rect x="360" y="168.004" width="16" height="16"/>
			<rect x="344" y="200.004" width="16" height="16"/>
			<rect x="328" y="232.004" width="16" height="16"/>
			<rect x="312" y="264.004" width="16" height="16"/>
			<rect x="288" y="296.004" width="16" height="16"/>
			<path d="M248,360.004c-13.232,0-24,10.768-24,24s10.768,24,24,24s24-10.768,24-24S261.232,360.004,248,360.004z M248,392.004
				c-4.416,0-8-3.584-8-8c0-4.416,3.584-8,8-8s8,3.584,8,8C256,388.42,252.416,392.004,248,392.004z"/>
			<path d="M248,298.236l-39.056,54.68C203.096,361.1,200,370.748,200,380.828v3.176c0,26.472,21.528,48,48,48s48-21.528,48-48
				v-3.176c0-10.08-3.096-19.728-8.944-27.896L248,298.236z M280,384.004c0,17.648-14.352,32-32,32s-32-14.352-32-32v-3.176
				c0-6.72,2.064-13.152,5.96-18.6L248,325.772l26.04,36.464c3.896,5.44,5.96,11.872,5.96,18.592V384.004z"/>
			<path d="M460.368,120.356l-78.432-20.912C378.44,98.508,376,95.332,376,91.716V62.42c0-16.76-10.576-31.864-26.328-37.584
				L293.328,4.348c-7.912-2.88-16.184-4.344-24.6-4.344h-41.456c-8.416,0-16.688,1.464-24.6,4.336l-56.344,20.488
				C130.576,30.548,120,45.66,120,62.42v29.296c0,3.616-2.44,6.792-5.936,7.728l-78.432,20.912C14.656,125.948,0,145.02,0,166.74
				v24.536c0,6.944,1.472,13.672,4.368,20l80.352,175.32c3.112,6.768,7.456,12.76,12.92,17.808l83.144,76.76
				c10.376,9.568,23.872,14.84,37.984,14.84h58.472c14.112,0,27.6-5.272,37.984-14.848l83.144-76.752
				c5.472-5.048,9.816-11.04,12.92-17.808l80.352-175.32c2.896-6.328,4.368-13.056,4.368-20V166.74
				C496,145.02,481.344,125.948,460.368,120.356z M480.008,191.276H480c0,4.624-0.976,9.112-2.912,13.328l-80.352,175.32
				c-2.216,4.832-5.32,9.12-9.232,12.728l-83.136,76.744c-7.416,6.84-17.056,10.608-27.136,10.608H218.76
				c-10.08,0-19.72-3.768-27.128-10.6l-83.144-76.752c-3.912-3.608-7.016-7.888-9.232-12.728l-80.344-175.32
				C16.976,200.388,16,195.9,16,191.276V166.74c0-14.48,9.768-27.192,23.76-30.928l78.432-20.912
				C128.672,112.1,136,102.564,136,91.716V62.42c0-10.056,6.344-19.12,15.8-22.552l56.344-20.488
				c6.144-2.24,12.584-3.376,19.128-3.376h41.456c6.544,0,12.984,1.136,19.136,3.368l56.344,20.488
				C353.656,43.3,360,52.364,360,62.42v29.296c0,10.848,7.328,20.384,17.816,23.176l78.432,20.912
				c13.992,3.736,23.76,16.456,23.76,30.928V191.276z"/>
		</g>
	</g>
</g>
</svg>